<?xml version="1.0" encoding="UTF-8" standalone="no"?>
<svg width="419px" height="75px" viewBox="0 0 419 75" version="1.1" xmlns="http://www.w3.org/2000/svg" xmlns:xlink="http://www.w3.org/1999/xlink" xmlns:sketch="http://www.bohemiancoding.com/sketch/ns">
    <!-- Generator: Sketch 3.3.3 (12081) - http://www.bohemiancoding.com/sketch -->
    <title>Group</title>
    <desc>Created with Sketch.</desc>
    <defs></defs>
    <g id="Page-1" stroke="none" stroke-width="1" fill="none" fill-rule="evenodd" sketch:type="MSPage">
        <g id="Group" sketch:type="MSLayerGroup">
            <path d="M1.36692675,16.0391566 L417.869334,16.0391566" id="Line" stroke="#3183D7" stroke-width="1.5" stroke-linecap="square" sketch:type="MSShapeGroup"></path>
            <path d="M1.36692675,55.7981928 L417.869334,55.7981928" id="Line-Copy" stroke="#3183D7" stroke-width="1.5" stroke-linecap="square" sketch:type="MSShapeGroup"></path>
            <path d="M1.06605267,8.13253012 L1.06605267,0.391801581 L1.96768925,0.391801581 L1.96768925,7.31715926 L5.38860453,7.31715926 L5.38860453,8.13253012 L1.06605267,8.13253012 Z M11.5780745,8.13253012 L10.612793,5.6705337 L7.50479863,5.6705337 L6.5501246,8.13253012 L5.63788052,8.13253012 L8.70344491,0.360033886 L9.46188039,0.360033886 L12.5115335,8.13253012 L11.5780745,8.13253012 Z M10.3316945,4.86045745 L9.43005792,2.46199642 C9.31337496,2.15843692 9.19315795,1.78605266 9.06940329,1.34483245 C8.99161464,1.68368957 8.88023712,2.05607384 8.73526738,2.46199642 L7.8230233,4.86045745 L10.3316945,4.86045745 Z M19.9102573,8.13253012 L19.0192282,8.13253012 L17.4546235,2.94910109 C17.3803707,2.71966659 17.2972796,2.43023047 17.2053475,2.08078407 C17.1134155,1.73133767 17.0656823,1.52132001 17.0621464,1.45072477 C16.9843578,1.91665331 16.860605,2.42669621 16.6908843,2.98086879 L15.1740133,8.13253012 L14.2829842,8.13253012 L12.2198276,0.391801581 L13.1745016,0.391801581 L14.3996666,5.1728398 C14.5693873,5.84349451 14.6931401,6.4506044 14.7709287,6.99418769 C14.8663966,6.34824131 15.0078284,5.71642346 15.1952283,5.09871517 L16.5848094,0.391801581 L17.5394834,0.391801581 L18.9980132,5.1410721 C19.1677339,5.68818515 19.3109335,6.30588417 19.4276165,6.99418769 C19.4947976,6.49296154 19.6220862,5.88232194 19.8094861,5.16225056 L21.0293474,0.391801581 L21.9840214,0.391801581 L19.9102573,8.13253012 Z M32.750623,4.25157662 C32.750623,5.49052295 32.4368212,6.46472254 31.8092083,7.17420463 C31.1815954,7.88368672 30.3091381,8.23842244 29.1918103,8.23842244 C28.0497316,8.23842244 27.1684349,7.88986371 26.5478937,7.19273579 C25.9273524,6.49560787 25.6170865,5.51170157 25.6170865,4.24098739 C25.6170865,2.98086249 25.9282364,2.00401561 26.5505455,1.31041745 C27.1728547,0.616819292 28.0568033,0.270025414 29.2024178,0.270025414 C30.3162098,0.270025414 31.1860152,0.622996282 31.8118602,1.32894861 C32.4377052,2.03490093 32.750623,3.00910053 32.750623,4.25157662 L32.750623,4.25157662 Z M26.5717605,4.25157662 C26.5717605,5.29991582 26.7953995,6.0949827 27.2426842,6.63680111 C27.6899689,7.17861952 28.3396711,7.44952466 29.1918103,7.44952466 C30.0510213,7.44952466 30.6998395,7.17950195 31.1382846,6.63944842 C31.5767297,6.09939489 31.7959489,5.30344558 31.7959489,4.25157662 C31.7959489,3.21029694 31.5776136,2.42052462 31.1409365,1.88223598 C30.7042593,1.34394733 30.0580929,1.07480704 29.2024178,1.07480704 C28.3432069,1.07480704 27.6899689,1.34571218 27.2426842,1.88753059 C26.7953995,2.429349 26.5717605,3.21735646 26.5717605,4.25157662 L26.5717605,4.25157662 Z M35.3812803,8.13253012 L34.4796437,8.13253012 L34.4796437,0.391801581 L38.8021956,0.391801581 L38.8021956,1.19128859 L35.3812803,1.19128859 L35.3812803,4.02390813 L38.5953495,4.02390813 L38.5953495,4.82339514 L35.3812803,4.82339514 L35.3812803,8.13253012 Z M40.9873384,8.13253012 L40.0857018,8.13253012 L40.0857018,0.391801581 L44.4082536,0.391801581 L44.4082536,1.19128859 L40.9873384,1.19128859 L40.9873384,4.02390813 L44.2014076,4.02390813 L44.2014076,4.82339514 L40.9873384,4.82339514 L40.9873384,8.13253012 Z M45.6917598,8.13253012 L45.6917598,0.391801581 L46.5933964,0.391801581 L46.5933964,8.13253012 L45.6917598,8.13253012 Z M52.0403421,1.08539627 C51.1882029,1.08539627 50.515518,1.36865539 50.0222673,1.93518213 C49.5290166,2.50170888 49.2823949,3.27736236 49.2823949,4.26216585 C49.2823949,5.27520744 49.5201771,6.05792034 49.9957486,6.61032803 C50.4713201,7.16273573 51.1493086,7.43893543 52.0297346,7.43893543 C52.5707193,7.43893543 53.1877154,7.34186844 53.8807415,7.14773155 L53.8807415,7.93662933 C53.3432927,8.13782574 52.6803313,8.23842244 51.8918373,8.23842244 C50.7497586,8.23842244 49.8684618,7.89251099 49.2479206,7.20067771 C48.6273794,6.50884443 48.3171134,5.52582057 48.3171134,4.25157662 C48.3171134,3.45385049 48.4665007,2.75496817 48.7652798,2.1549087 C49.0640589,1.55484922 49.4954259,1.09245738 50.0593935,0.767719315 C50.6233612,0.442981245 51.2872066,0.280614646 52.0509496,0.280614646 C52.8641945,0.280614646 53.5748892,0.428862411 54.183055,0.725362387 L53.8011853,1.49837632 C53.2142347,1.22305491 52.6272928,1.08539627 52.0403421,1.08539627 L52.0403421,1.08539627 Z M59.8951879,8.13253012 L55.572636,8.13253012 L55.572636,0.391801581 L59.8951879,0.391801581 L59.8951879,1.19128859 L56.4742726,1.19128859 L56.4742726,3.68505271 L59.6883419,3.68505271 L59.6883419,4.47924511 L56.4742726,4.47924511 L56.4742726,7.32774849 L59.8951879,7.32774849 L59.8951879,8.13253012 Z M65.9891905,6.07292451 C65.9891905,6.7541685 65.7416849,7.28538966 65.2466662,7.66660392 C64.7516476,8.04781817 64.0798466,8.23842244 63.2312433,8.23842244 C62.3119229,8.23842244 61.6047641,8.1201772 61.1097454,7.88368317 L61.1097454,7.01536615 C61.4279717,7.14949709 61.7744795,7.25538835 62.1492794,7.33304311 C62.5240792,7.41069787 62.8953376,7.44952466 63.2630657,7.44952466 C63.8641598,7.44952466 64.3167415,7.33569156 64.6208244,7.10802193 C64.9249072,6.88035231 65.0769464,6.56356095 65.0769464,6.15763837 C65.0769464,5.88937648 65.0230255,5.66965212 64.9151822,5.49845868 C64.8073388,5.32726524 64.6270133,5.16931078 64.3742002,5.02459055 C64.1213871,4.87987032 63.7368695,4.71573887 63.2206358,4.53219127 C62.4993229,4.27451867 61.9839809,3.96919887 61.6745942,3.6162227 C61.3652076,3.26324654 61.2105166,2.80261956 61.2105166,2.23432794 C61.2105166,1.63779822 61.4350395,1.1630524 61.8840921,0.810076242 C62.3331448,0.45710008 62.9271582,0.280614646 63.6661503,0.280614646 C64.4369651,0.280614646 65.1458918,0.421802993 65.7929519,0.704183923 L65.5118534,1.48778709 C64.8718651,1.2195252 64.2495653,1.08539627 63.6449353,1.08539627 C63.1675959,1.08539627 62.7945696,1.18775782 62.5258452,1.392484 C62.2571208,1.59721017 62.1227606,1.88135172 62.1227606,2.24491717 C62.1227606,2.51317905 62.1722618,2.73290342 62.2712655,2.90409686 C62.3702692,3.07529029 62.5373355,3.23236233 62.7724694,3.37531768 C63.0076032,3.51827302 63.3673703,3.67622749 63.8517814,3.84918581 C64.6650263,4.13862626 65.2245658,4.44924062 65.5304166,4.78103822 C65.8362674,5.11283581 65.9891905,5.54346027 65.9891905,6.07292451 L65.9891905,6.07292451 Z M77.1270541,4.25157662 C77.1270541,5.49052295 76.8132524,6.46472254 76.1856395,7.17420463 C75.5580266,7.88368672 74.6855693,8.23842244 73.5682415,8.23842244 C72.4261628,8.23842244 71.544866,7.88986371 70.9243248,7.19273579 C70.3037836,6.49560787 69.9935176,5.51170157 69.9935176,4.24098739 C69.9935176,2.98086249 70.3046676,2.00401561 70.9269767,1.31041745 C71.5492858,0.616819292 72.4332344,0.270025414 73.578849,0.270025414 C74.6926409,0.270025414 75.5624464,0.622996282 76.1882914,1.32894861 C76.8141363,2.03490093 77.1270541,3.00910053 77.1270541,4.25157662 L77.1270541,4.25157662 Z M70.9481917,4.25157662 C70.9481917,5.29991582 71.1718307,6.0949827 71.6191154,6.63680111 C72.0664001,7.17861952 72.7161023,7.44952466 73.5682415,7.44952466 C74.4274524,7.44952466 75.0762707,7.17950195 75.5147158,6.63944842 C75.9531609,6.09939489 76.1723801,5.30344558 76.1723801,4.25157662 C76.1723801,3.21029694 75.9540448,2.42052462 75.5173677,1.88223598 C75.0806905,1.34394733 74.4345241,1.07480704 73.578849,1.07480704 C72.7196381,1.07480704 72.0664001,1.34571218 71.6191154,1.88753059 C71.1718307,2.429349 70.9481917,3.21735646 70.9481917,4.25157662 L70.9481917,4.25157662 Z M79.7577115,8.13253012 L78.8560749,8.13253012 L78.8560749,0.391801581 L83.1786268,0.391801581 L83.1786268,1.19128859 L79.7577115,1.19128859 L79.7577115,4.02390813 L82.9717807,4.02390813 L82.9717807,4.82339514 L79.7577115,4.82339514 L79.7577115,8.13253012 Z" id="LAW-OFFICES-OF" fill="#000000" sketch:type="MSShapeGroup"></path>
            <path d="M0.806169181,44.545369 L2.02249461,44.545369 C2.22050207,44.545369 2.40907777,44.5265439 2.58822737,44.4888931 C2.76737697,44.4512423 2.92530912,44.3735887 3.06202856,44.25593 C3.19874799,44.1382712 3.30717902,43.964139 3.38732489,43.7335279 C3.46747077,43.5029168 3.5075431,43.1993618 3.5075431,42.8228539 L3.5075431,28.732116 C3.5075431,28.3461954 3.46747077,28.0379341 3.38732489,27.807323 C3.30717902,27.5767119 3.19874799,27.4002265 3.06202856,27.2778614 C2.92530912,27.1554964 2.76737697,27.0731365 2.58822737,27.0307794 C2.40907777,26.9884222 2.22050207,26.967244 2.02249461,26.967244 L0.806169181,26.967244 L0.806169181,25.4423946 L10.1407597,25.4423946 C12.8751484,25.4423946 14.8811224,25.8989036 16.1587419,26.8119352 C17.4363615,27.7249669 18.0751616,29.0521374 18.0751616,30.7934864 C18.0751616,31.555915 17.9620162,32.233619 17.735722,32.826619 C17.5094277,33.4196189 17.2100638,33.9373095 16.8376212,34.3797063 C16.4651786,34.8221031 16.0432405,35.1962522 15.5717942,35.5021649 C15.1003479,35.8080776 14.6194798,36.0598635 14.1291756,36.2575301 L17.5801455,42.1875 C17.8252976,42.6016587 18.0633744,42.9569827 18.2943831,43.2534827 C18.5253918,43.5499827 18.756397,43.7947091 18.9874057,43.9876694 C19.2184144,44.1806297 19.4564912,44.3218181 19.7016433,44.4112387 C19.9467954,44.5006593 20.206087,44.545369 20.4795259,44.545369 L20.5926724,44.545369 L20.5926724,46.0843373 L19.64507,46.0843373 C18.7776088,46.0843373 18.0209488,46.0513934 17.3750673,45.9855045 C16.7291859,45.9196156 16.1634588,45.790193 15.6778691,45.5972327 C15.1922794,45.4042724 14.7726984,45.1383677 14.4191137,44.7995105 C14.0655289,44.4606534 13.7378787,44.0229696 13.436153,43.4864458 L9.99932651,37.1187877 L8.07583513,37.1187877 L8.07583513,42.8228539 C8.07583513,43.1993618 8.11590747,43.5029168 8.19605334,43.7335279 C8.27619922,43.964139 8.38463024,44.1382712 8.52134968,44.25593 C8.65806911,44.3735887 8.81600126,44.4512423 8.99515086,44.4888931 C9.17430046,44.5265439 9.36287617,44.545369 9.56088362,44.545369 L10.8054957,44.545369 L10.8054957,46.0843373 L0.806169181,46.0843373 L0.806169181,44.545369 Z M8.07583513,35.4386295 L9.70231681,35.4386295 C10.3717706,35.4386295 10.9304261,35.3492102 11.3783001,35.170369 C11.8261741,34.9915277 12.1844679,34.725623 12.4531923,34.3726468 C12.7219168,34.0196707 12.9152068,33.5772805 13.0330684,33.0454631 C13.15093,32.5136457 13.2098599,31.8947701 13.2098599,31.1888178 C13.2098599,30.4546274 13.1438584,29.8333986 13.0118534,29.325113 C12.8798485,28.8168273 12.6724152,28.4003217 12.3895474,28.0755836 C12.1066796,27.7508455 11.738957,27.5155316 11.2863685,27.3696348 C10.8337801,27.223738 10.2869105,27.1507907 9.64574353,27.1507907 L8.07583513,27.1507907 L8.07583513,35.4386295 Z M28.5977909,39.2931099 L27.7633351,41.7780497 C27.6879037,42.0133671 27.6101162,42.2886844 27.5299704,42.6040098 C27.4498245,42.9193352 27.4097522,43.1946524 27.4097522,43.4299699 C27.4097522,43.6182238 27.4474673,43.7829436 27.5228987,43.924134 C27.5983301,44.0653245 27.6973324,44.1806283 27.8199084,44.2700489 C27.9424844,44.3594696 28.081559,44.4277106 28.2371363,44.4747741 C28.3927136,44.5218376 28.5553601,44.545369 28.7250808,44.545369 L29.9414062,44.545369 L29.9414062,46.0843373 L22.4030172,46.0843373 L22.4030172,44.545369 L22.7566002,44.545369 C23.0111812,44.545369 23.2445437,44.5171313 23.4566945,44.4606551 C23.6688453,44.4041789 23.8668498,44.2982877 24.0507139,44.1429782 C24.234578,43.9876687 24.4090105,43.773533 24.5740167,43.5005648 C24.7390229,43.2275965 24.9063838,42.8746257 25.0761045,42.4416416 L31.3557381,25.4423946 L35.3300108,25.4423946 L41.3833513,42.4698795 C41.5247852,42.8746255 41.6732886,43.2111244 41.8288658,43.4793863 C41.9844431,43.7476482 42.1541613,43.9594307 42.3380253,44.1147402 C42.5218894,44.2700497 42.7175367,44.3806473 42.9249731,44.4465361 C43.1324094,44.512425 43.3492715,44.545369 43.5755657,44.545369 L44.0988685,44.545369 L44.0988685,46.0843373 L34.5379849,46.0843373 L34.5379849,44.545369 L35.6694504,44.545369 C35.8108843,44.545369 35.9570305,44.5241907 36.1078933,44.4818336 C36.2587561,44.4394764 36.3931163,44.3735885 36.5109779,44.2841679 C36.6288395,44.1947473 36.7254845,44.0794435 36.8009159,43.938253 C36.8763474,43.7970625 36.9140625,43.6276365 36.9140625,43.4299699 C36.9140625,43.1946524 36.8857761,42.9687511 36.8292026,42.752259 C36.772629,42.535767 36.7160563,42.3475159 36.6594828,42.1875 L35.6411638,39.2931099 L28.5977909,39.2931099 Z M33.5338093,32.784262 C33.4300911,32.4548176 33.3240172,32.1089062 33.2155846,31.7465173 C33.1071519,31.3841285 32.9987209,31.0146856 32.8902883,30.6381777 C32.7818556,30.2616698 32.678139,29.8875207 32.5791352,29.5157191 C32.4801315,29.1439176 32.3929152,28.7885936 32.3174838,28.4497364 C32.2326235,28.7415301 32.1336213,29.061557 32.0204741,29.4098268 C31.907327,29.7580966 31.78711,30.1157738 31.6598195,30.482869 C31.532529,30.8499642 31.4052404,31.2170539 31.2779499,31.5841491 C31.1506594,31.9512443 31.0304424,32.3042152 30.9172953,32.6430723 L29.2059537,37.528238 L35.0612877,37.528238 L33.5338093,32.784262 Z M62.8811961,46.0843373 L51.5806843,30.1581325 L51.5806843,42.6675452 C51.5806843,43.0817039 51.6207566,43.4111434 51.7009025,43.6558735 C51.7810484,43.9006036 51.8871222,44.0888548 52.0191272,44.2206325 C52.1511321,44.3524103 52.3090643,44.4394764 52.4929283,44.4818336 C52.6767924,44.5241907 52.8677253,44.545369 53.0657328,44.545369 L54.2820582,44.545369 L54.2820582,46.0843373 L46.7153825,46.0843373 L46.7153825,44.545369 L47.931708,44.545369 C48.1391444,44.545369 48.3324344,44.5241907 48.5115841,44.4818336 C48.6907337,44.4394764 48.8486658,44.3524103 48.9853852,44.2206325 C49.1221047,44.0888548 49.2281785,43.9006036 49.3036099,43.6558735 C49.3790413,43.4111434 49.4167565,43.0817039 49.4167565,42.6675452 L49.4167565,28.732116 C49.4167565,28.3461954 49.3766841,28.0379341 49.2965383,27.807323 C49.2163924,27.5767119 49.1079614,27.4002265 48.9712419,27.2778614 C48.8345225,27.1554964 48.6765903,27.0731365 48.4974407,27.0307794 C48.3182911,26.9884222 48.1297154,26.967244 47.931708,26.967244 L46.7153825,26.967244 L46.7153825,25.4423946 L53.1505927,25.4423946 L63.3762123,39.871988 L63.3762123,28.732116 C63.3762123,28.3461954 63.3361399,28.0379341 63.2559941,27.807323 C63.1758482,27.5767119 63.0674172,27.4002265 62.9306977,27.2778614 C62.7939783,27.1554964 62.6360462,27.0731365 62.4568966,27.0307794 C62.2777469,26.9884222 62.0891712,26.967244 61.8911638,26.967244 L60.6748384,26.967244 L60.6748384,25.4423946 L68.241514,25.4423946 L68.241514,26.967244 L67.0251886,26.967244 C66.8271811,26.967244 66.6386054,26.9884222 66.4594558,27.0307794 C66.2803062,27.0731365 66.1223741,27.1602027 65.9856546,27.2919804 C65.8489352,27.4237582 65.7428614,27.6120093 65.66743,27.8567395 C65.5919985,28.1014696 65.5542834,28.4309091 65.5542834,28.8450678 L65.5542834,46.0843373 L62.8811961,46.0843373 Z M91.1678341,35.3821536 C91.1678341,36.9634868 90.950972,38.4106674 90.5172414,39.7237387 C90.0835108,41.03681 89.4352818,42.1639637 88.572535,43.1052334 C87.7097883,44.0465032 86.6396212,44.7783295 85.3620016,45.3007342 C84.0843821,45.8231389 82.6017056,46.0843373 80.9139278,46.0843373 L71.3530442,46.0843373 L71.3530442,44.545369 L72.5693696,44.545369 C72.7862349,44.545369 72.9842394,44.5241907 73.163389,44.4818336 C73.3425386,44.4394764 73.4981136,44.3524103 73.6301185,44.2206325 C73.7621235,44.0888548 73.8658401,43.9006036 73.9412716,43.6558735 C74.016703,43.4111434 74.0544181,43.0817039 74.0544181,42.6675452 L74.0544181,28.732116 C74.0544181,28.3461954 74.016703,28.0379341 73.9412716,27.807323 C73.8658401,27.5767119 73.7597663,27.4002265 73.6230469,27.2778614 C73.4863274,27.1554964 73.3283953,27.0731365 73.1492457,27.0307794 C72.9700961,26.9884222 72.776806,26.967244 72.5693696,26.967244 L71.3530442,26.967244 L71.3530442,25.4423946 L80.9139278,25.4423946 C82.5168453,25.4423946 83.9523778,25.651824 85.2205684,26.070689 C86.488759,26.4895541 87.5636405,27.1154891 88.4452452,27.9485128 C89.3268498,28.7815365 90.0010079,29.8192709 90.4677398,31.061747 C90.9344716,32.3042231 91.1678341,33.7443442 91.1678341,35.3821536 L91.1678341,35.3821536 Z M86.2742457,35.3821536 C86.2742457,32.6242332 85.7674485,30.5722959 84.7538389,29.2262801 C83.7402293,27.8802644 82.2481241,27.2072666 80.2774784,27.2072666 L78.6227101,27.2072666 L78.6227101,44.2912274 L80.2491918,44.2912274 C81.2392291,44.2912274 82.1113917,44.0865043 82.8657058,43.677052 C83.6200199,43.2675996 84.2493913,42.6769617 84.7538389,41.9051205 C85.2582865,41.1332793 85.6377951,40.199083 85.8923761,39.1025038 C86.1469571,38.0059245 86.2742457,36.7658202 86.2742457,35.3821536 L86.2742457,35.3821536 Z M100.304418,39.2931099 L99.4699623,41.7780497 C99.3945309,42.0133671 99.3167434,42.2886844 99.2365975,42.6040098 C99.1564516,42.9193352 99.1163793,43.1946524 99.1163793,43.4299699 C99.1163793,43.6182238 99.1540945,43.7829436 99.2295259,43.924134 C99.3049573,44.0653245 99.4039595,44.1806283 99.5265356,44.2700489 C99.6491116,44.3594696 99.7881862,44.4277106 99.9437635,44.4747741 C100.099341,44.5218376 100.261987,44.545369 100.431708,44.545369 L101.648033,44.545369 L101.648033,46.0843373 L94.1096444,46.0843373 L94.1096444,44.545369 L94.4632274,44.545369 C94.7178084,44.545369 94.9511708,44.5171313 95.1633217,44.4606551 C95.3754725,44.4041789 95.573477,44.2982877 95.7573411,44.1429782 C95.9412051,43.9876687 96.1156376,43.773533 96.2806439,43.5005648 C96.4456501,43.2275965 96.613011,42.8746257 96.7827317,42.4416416 L103.062365,25.4423946 L107.036638,25.4423946 L113.089978,42.4698795 C113.231412,42.8746255 113.379916,43.2111244 113.535493,43.4793863 C113.69107,43.7476482 113.860788,43.9594307 114.044652,44.1147402 C114.228517,44.2700497 114.424164,44.3806473 114.6316,44.4465361 C114.839037,44.512425 115.055899,44.545369 115.282193,44.545369 L115.805496,44.545369 L115.805496,46.0843373 L106.244612,46.0843373 L106.244612,44.545369 L107.376078,44.545369 C107.517511,44.545369 107.663658,44.5241907 107.81452,44.4818336 C107.965383,44.4394764 108.099743,44.3735885 108.217605,44.2841679 C108.335467,44.1947473 108.432112,44.0794435 108.507543,43.938253 C108.582975,43.7970625 108.62069,43.6276365 108.62069,43.4299699 C108.62069,43.1946524 108.592403,42.9687511 108.53583,42.752259 C108.479256,42.535767 108.422683,42.3475159 108.36611,42.1875 L107.347791,39.2931099 L100.304418,39.2931099 Z M105.240436,32.784262 C105.136718,32.4548176 105.030644,32.1089062 104.922212,31.7465173 C104.813779,31.3841285 104.705348,31.0146856 104.596915,30.6381777 C104.488483,30.2616698 104.384766,29.8875207 104.285762,29.5157191 C104.186759,29.1439176 104.099542,28.7885936 104.024111,28.4497364 C103.939251,28.7415301 103.840248,29.061557 103.727101,29.4098268 C103.613954,29.7580966 103.493737,30.1157738 103.366447,30.482869 C103.239156,30.8499642 103.111868,31.2170539 102.984577,31.5841491 C102.857287,31.9512443 102.73707,32.3042152 102.623922,32.6430723 L100.912581,37.528238 L106.767915,37.528238 L105.240436,32.784262 Z M118.42201,46.0843373 L118.42201,44.545369 L119.638335,44.545369 C119.8552,44.545369 120.053205,44.5241907 120.232355,44.4818336 C120.411504,44.4394764 120.567079,44.3524103 120.699084,44.2206325 C120.831089,44.0888548 120.934806,43.9006036 121.010237,43.6558735 C121.085668,43.4111434 121.123384,43.0817039 121.123384,42.6675452 L121.123384,28.8450678 C121.123384,28.4309091 121.085668,28.1014696 121.010237,27.8567395 C120.934806,27.6120093 120.831089,27.4237582 120.699084,27.2919804 C120.567079,27.1602027 120.411504,27.0731365 120.232355,27.0307794 C120.053205,26.9884222 119.8552,26.967244 119.638335,26.967244 L118.42201,26.967244 L118.42201,25.4423946 L128.421336,25.4423946 L128.421336,26.967244 L127.205011,26.967244 C127.007003,26.967244 126.81607,26.9884222 126.632206,27.0307794 C126.448342,27.0731365 126.29041,27.1554964 126.158405,27.2778614 C126.0264,27.4002265 125.920326,27.5767119 125.84018,27.807323 C125.760035,28.0379341 125.719962,28.3461954 125.719962,28.732116 L125.719962,44.3194654 L131.108567,44.3194654 C131.78745,44.3194654 132.315461,44.1053297 132.692619,43.677052 C133.069776,43.2487742 133.34321,42.6251923 133.512931,41.8062877 L133.979661,39.6319654 L135.606142,39.6319654 L135.393992,46.0843373 L118.42201,46.0843373 Z M139.170259,46.0843373 L139.170259,44.545369 L140.386584,44.545369 C140.603449,44.545369 140.801454,44.5241907 140.980603,44.4818336 C141.159753,44.4394764 141.315328,44.3524103 141.447333,44.2206325 C141.579338,44.0888548 141.683055,43.9006036 141.758486,43.6558735 C141.833917,43.4111434 141.871633,43.0817039 141.871633,42.6675452 L141.871633,28.8450678 C141.871633,28.4309091 141.833917,28.1014696 141.758486,27.8567395 C141.683055,27.6120093 141.579338,27.4237582 141.447333,27.2919804 C141.315328,27.1602027 141.159753,27.0731365 140.980603,27.0307794 C140.801454,26.9884222 140.603449,26.967244 140.386584,26.967244 L139.170259,26.967244 L139.170259,25.4423946 L149.169585,25.4423946 L149.169585,26.967244 L147.95326,26.967244 C147.755252,26.967244 147.564319,26.9884222 147.380455,27.0307794 C147.196591,27.0731365 147.038659,27.1554964 146.906654,27.2778614 C146.774649,27.4002265 146.668575,27.5767119 146.588429,27.807323 C146.508284,28.0379341 146.468211,28.3461954 146.468211,28.732116 L146.468211,44.3194654 L151.856816,44.3194654 C152.535698,44.3194654 153.06371,44.1053297 153.440867,43.677052 C153.818025,43.2487742 154.091459,42.6251923 154.26118,41.8062877 L154.727909,39.6319654 L156.354391,39.6319654 L156.142241,46.0843373 L139.170259,46.0843373 Z M185.998788,30.6946536 C185.998788,31.3347171 185.911571,31.892411 185.737136,32.3677523 C185.562701,32.8430935 185.315196,33.2525397 184.994612,33.5961032 C184.674029,33.9396666 184.289806,34.233809 183.841932,34.4785392 C183.394058,34.7232693 182.896689,34.9303455 182.349811,35.0997741 L182.349811,35.2409639 C183.019265,35.4103924 183.629779,35.6433532 184.181371,35.9398532 C184.732963,36.2363531 185.209117,36.5987366 185.609846,37.0270143 C186.010576,37.4552921 186.321726,37.9518044 186.543305,38.5165663 C186.764885,39.0813281 186.875673,39.7166757 186.875673,40.422628 C186.875673,42.3239929 186.182658,43.7429358 184.796606,44.6794992 C183.410553,45.6160627 181.340935,46.0843373 178.587689,46.0843373 L169.253098,46.0843373 L169.253098,44.545369 L170.441137,44.545369 C170.658002,44.545369 170.858364,44.5241907 171.042228,44.4818336 C171.226092,44.4394764 171.384024,44.3524103 171.516029,44.2206325 C171.648034,44.0888548 171.754108,43.9006036 171.834254,43.6558735 C171.9144,43.4111434 171.954472,43.0817039 171.954472,42.6675452 L171.954472,28.8168298 C171.954472,28.4309092 171.9144,28.1179417 171.834254,27.8779179 C171.754108,27.6378941 171.645677,27.4519961 171.508957,27.3202184 C171.372238,27.1884406 171.211949,27.0966682 171.028085,27.0448983 C170.844221,26.9931285 170.648573,26.967244 170.441137,26.967244 L169.253098,26.967244 L169.253098,25.4423946 L177.710803,25.4423946 C180.464049,25.4423946 182.533668,25.8659596 183.91972,26.7131024 C185.305772,27.5602452 185.998788,28.8874157 185.998788,30.6946536 L185.998788,30.6946536 Z M176.522764,44.3194654 L178.446255,44.3194654 C179.087422,44.3194654 179.634292,44.2488712 180.08688,44.1076807 C180.539469,43.9664903 180.907191,43.7382358 181.190059,43.4229104 C181.472927,43.107585 181.678003,42.6957857 181.805294,42.1875 C181.932584,41.6792143 181.996228,41.0579856 181.996228,40.3237952 C181.996228,39.6178429 181.939656,39.0036735 181.826509,38.4812688 C181.713362,37.9588641 181.520071,37.5282396 181.246633,37.1893825 C180.973194,36.8505254 180.6149,36.5963864 180.17174,36.4269578 C179.728581,36.2575293 179.172282,36.1728163 178.502829,36.1728163 L176.522764,36.1728163 L176.522764,44.3194654 Z M176.522764,34.4079443 L177.625943,34.4079443 C178.304826,34.4079443 178.868195,34.3373501 179.31607,34.1961596 C179.763944,34.0549692 180.122237,33.8361272 180.390962,33.5396273 C180.659686,33.2431273 180.850619,32.8595656 180.963766,32.3889307 C181.076913,31.9182958 181.133486,31.3535425 181.133486,30.6946536 C181.133486,30.0357648 181.069842,29.4851302 180.942551,29.0427334 C180.815261,28.6003366 180.610185,28.2426595 180.327317,27.9696913 C180.044449,27.696723 179.676726,27.5014125 179.224138,27.3837538 C178.771549,27.266095 178.219966,27.2072666 177.56937,27.2072666 L176.522764,27.2072666 L176.522764,34.4079443 Z M191.740975,44.0088479 C191.740975,43.5664511 191.802262,43.1970083 191.924838,42.9005083 C192.047414,42.6040083 192.214775,42.3663413 192.426926,42.1875 C192.639077,42.0086587 192.891297,41.8815892 193.183594,41.8062877 C193.47589,41.7309861 193.78704,41.6933358 194.117053,41.6933358 C194.437636,41.6933358 194.741715,41.7309861 195.029297,41.8062877 C195.316879,41.8815892 195.569099,42.0086587 195.785964,42.1875 C196.00283,42.3663413 196.174905,42.6040083 196.302196,42.9005083 C196.429486,43.1970083 196.49313,43.5664511 196.49313,44.0088479 C196.49313,44.441832 196.429486,44.8042154 196.302196,45.096009 C196.174905,45.3878027 196.00283,45.6231166 195.785964,45.8019578 C195.569099,45.9807991 195.316879,46.1102217 195.029297,46.1902297 C194.741715,46.2702376 194.437636,46.310241 194.117053,46.310241 C193.78704,46.310241 193.47589,46.2702376 193.183594,46.1902297 C192.891297,46.1102217 192.639077,45.9807991 192.426926,45.8019578 C192.214775,45.6231166 192.047414,45.3878027 191.924838,45.096009 C191.802262,44.8042154 191.740975,44.441832 191.740975,44.0088479 L191.740975,44.0088479 Z M210.480873,46.0843373 L210.480873,44.545369 L211.697198,44.545369 C211.914064,44.545369 212.112068,44.5241907 212.291218,44.4818336 C212.470367,44.4394764 212.625942,44.3524103 212.757947,44.2206325 C212.889952,44.0888548 212.993669,43.9006036 213.0691,43.6558735 C213.144532,43.4111434 213.182247,43.0817039 213.182247,42.6675452 L213.182247,28.8591867 C213.182247,28.445028 213.144532,28.1155886 213.0691,27.8708584 C212.993669,27.6261283 212.889952,27.4378772 212.757947,27.3060994 C212.625942,27.1743216 212.470367,27.0872555 212.291218,27.0448983 C212.112068,27.0025412 211.914064,26.981363 211.697198,26.981363 L210.480873,26.981363 L210.480873,25.4423946 L220.480199,25.4423946 L220.480199,26.981363 L219.263874,26.981363 C219.056438,26.981363 218.86079,27.0025412 218.676926,27.0448983 C218.493062,27.0872555 218.33513,27.1743216 218.203125,27.3060994 C218.07112,27.4378772 217.967403,27.6261283 217.891972,27.8708584 C217.816541,28.1155886 217.778825,28.445028 217.778825,28.8591867 L217.778825,42.6675452 C217.778825,43.0817039 217.816541,43.4111434 217.891972,43.6558735 C217.967403,43.9006036 218.07112,44.0888548 218.203125,44.2206325 C218.33513,44.3524103 218.493062,44.4394764 218.676926,44.4818336 C218.86079,44.5241907 219.056438,44.545369 219.263874,44.545369 L220.480199,44.545369 L220.480199,46.0843373 L210.480873,46.0843373 Z M230.748249,46.3667169 C229.447057,46.3667169 228.362747,46.2443536 227.495286,45.9996235 C226.627824,45.7548934 225.932451,45.4395727 225.409146,45.0536521 C224.885841,44.6677315 224.513404,44.2347539 224.291824,43.7547063 C224.070244,43.2746587 223.959456,42.7993246 223.959456,42.3286898 C223.959456,41.8298168 224.051386,41.410958 224.235251,41.0721009 C224.419115,40.7332438 224.664263,40.4555734 224.970703,40.2390813 C225.277143,40.0225893 225.626008,39.8672821 226.017309,39.7731551 C226.408609,39.6790281 226.816404,39.6319654 227.240706,39.6319654 C227.240706,40.4602828 227.339708,41.1874027 227.537716,41.8133471 C227.735723,42.4392915 228.009158,42.9616884 228.358028,43.3805535 C228.706898,43.7994185 229.124122,44.1147392 229.609712,44.3265248 C230.095301,44.5383105 230.625671,44.6442018 231.200835,44.6442018 C231.766571,44.6442018 232.271011,44.5641951 232.71417,44.4041792 C233.15733,44.2441634 233.534481,44.0229683 233.845636,43.7405873 C234.15679,43.4582064 234.39251,43.1264138 234.552802,42.7451995 C234.713093,42.3639853 234.793238,41.9521859 234.793238,41.5097892 C234.793238,41.0203289 234.694236,40.5849981 234.496228,40.2037839 C234.298221,39.8225696 233.998857,39.4695988 233.598128,39.1448607 C233.197398,38.8201226 232.692958,38.5095083 232.084793,38.2130083 C231.476627,37.9165083 230.767111,37.5988345 229.956223,37.2599774 C228.947328,36.8458187 228.09638,36.4199005 227.403354,35.9822101 C226.710328,35.5445196 226.151672,35.0715387 225.727371,34.563253 C225.303069,34.0549673 224.998991,33.5043328 224.815127,32.9113328 C224.631263,32.3183329 224.539332,31.6688665 224.539332,30.9629142 C224.539332,30.0781206 224.718479,29.2780533 225.076778,28.5626883 C225.435077,27.8473232 225.930088,27.2355071 226.561827,26.7272214 C227.193565,26.2189357 227.943153,25.8283146 228.810614,25.5553464 C229.678075,25.2823782 230.620954,25.1458961 231.639278,25.1458961 C232.704747,25.1458961 233.624053,25.2329622 234.397225,25.4070971 C235.170397,25.581232 235.809197,25.8188991 236.313645,26.1201054 C236.818093,26.4213117 237.192887,26.7766358 237.438039,27.1860881 C237.683191,27.5955405 237.805765,28.0355775 237.805765,28.5062123 C237.805765,28.8450695 237.732692,29.1603901 237.586544,29.4521837 C237.440395,29.7439774 237.218819,29.9981164 236.921808,30.2146084 C236.624796,30.4311005 236.252359,30.6005265 235.804485,30.7228916 C235.356611,30.8452566 234.835671,30.9064383 234.241649,30.9064383 C234.241649,30.5016923 234.187433,30.0663615 234.079001,29.600433 C233.970568,29.1345044 233.793778,28.7015268 233.548626,28.3014872 C233.303474,27.9014475 232.985252,27.5696549 232.593952,27.3060994 C232.202652,27.0425439 231.728855,26.9107681 231.172548,26.9107681 C230.785963,26.9107681 230.41824,26.9672434 230.06937,27.0801958 C229.720499,27.1931482 229.416421,27.3625742 229.157126,27.5884789 C228.89783,27.8143837 228.692754,28.0944072 228.541891,28.428558 C228.391028,28.7627087 228.315598,29.1462704 228.315598,29.5792545 C228.315598,29.9840005 228.3816,30.3652091 228.513605,30.7228916 C228.645609,31.0805741 228.888401,31.4311918 229.241985,31.7747553 C229.59557,32.1183187 230.081153,32.461877 230.698747,32.8054405 C231.316342,33.149004 232.115432,33.5184468 233.09604,33.9137801 C234.086077,34.3185261 234.929953,34.7326786 235.627694,35.15625 C236.325435,35.5798214 236.898233,36.0339772 237.346107,36.5187312 C237.793981,37.0034851 238.119274,37.5352945 238.321996,38.1141755 C238.524718,38.6930564 238.626078,39.3354633 238.626078,40.0414157 C238.626078,40.9732727 238.442216,41.8274622 238.074488,42.6040098 C237.70676,43.3805573 237.178748,44.0464957 236.490436,44.6018449 C235.802125,45.157194 234.974749,45.5901716 234.008284,45.9007907 C233.041819,46.2114097 231.955152,46.3667169 230.748249,46.3667169 L230.748249,46.3667169 Z M249.983163,44.3194654 L255.781923,44.3194654 C256.07422,44.3194654 256.324083,44.2653432 256.531519,44.1570971 C256.738956,44.0488511 256.918103,43.8958971 257.068966,43.6982304 C257.219828,43.5005638 257.340045,43.267603 257.42962,42.9993411 C257.519195,42.7310792 257.587554,42.4369368 257.634698,42.1169051 L257.860991,40.7614834 L259.869343,40.7614834 L259.657193,46.0843373 L242.68521,46.0843373 L242.68521,44.545369 L243.901536,44.545369 C244.108972,44.545369 244.302262,44.5265439 244.481412,44.4888931 C244.660561,44.4512423 244.818493,44.3735887 244.955213,44.25593 C245.091932,44.1382712 245.198006,43.964139 245.273438,43.7335279 C245.348869,43.5029168 245.386584,43.1993618 245.386584,42.8228539 L245.386584,28.8450678 C245.386584,28.4309091 245.348869,28.1014696 245.273438,27.8567395 C245.198006,27.6120093 245.094289,27.4237582 244.962284,27.2919804 C244.83028,27.1602027 244.674705,27.0731365 244.495555,27.0307794 C244.316405,26.9884222 244.118401,26.967244 243.901536,26.967244 L242.68521,26.967244 L242.68521,25.4423946 L258.766164,25.4423946 L258.87931,30.7652485 L256.856816,30.7652485 L256.715383,29.3957078 C256.639951,28.6897555 256.460804,28.1485335 256.177936,27.7720256 C255.895069,27.3955177 255.45663,27.2072666 254.862608,27.2072666 L249.983163,27.2072666 L249.983163,34.4361822 L256.856816,34.4361822 L256.856816,36.1728163 L249.983163,36.1728163 L249.983163,44.3194654 Z M279.570986,46.0843373 L268.270474,30.1581325 L268.270474,42.6675452 C268.270474,43.0817039 268.310546,43.4111434 268.390692,43.6558735 C268.470838,43.9006036 268.576912,44.0888548 268.708917,44.2206325 C268.840922,44.3524103 268.998854,44.4394764 269.182718,44.4818336 C269.366582,44.5241907 269.557515,44.545369 269.755523,44.545369 L270.971848,44.545369 L270.971848,46.0843373 L263.405172,46.0843373 L263.405172,44.545369 L264.621498,44.545369 C264.828934,44.545369 265.022224,44.5241907 265.201374,44.4818336 C265.380524,44.4394764 265.538456,44.3524103 265.675175,44.2206325 C265.811895,44.0888548 265.917968,43.9006036 265.9934,43.6558735 C266.068831,43.4111434 266.106546,43.0817039 266.106546,42.6675452 L266.106546,28.732116 C266.106546,28.3461954 266.066474,28.0379341 265.986328,27.807323 C265.906182,27.5767119 265.797751,27.4002265 265.661032,27.2778614 C265.524312,27.1554964 265.36638,27.0731365 265.187231,27.0307794 C265.008081,26.9884222 264.819505,26.967244 264.621498,26.967244 L263.405172,26.967244 L263.405172,25.4423946 L269.840383,25.4423946 L280.066002,39.871988 L280.066002,28.732116 C280.066002,28.3461954 280.02593,28.0379341 279.945784,27.807323 C279.865638,27.5767119 279.757207,27.4002265 279.620488,27.2778614 C279.483768,27.1554964 279.325836,27.0731365 279.146686,27.0307794 C278.967537,26.9884222 278.778961,26.967244 278.580954,26.967244 L277.364628,26.967244 L277.364628,25.4423946 L284.931304,25.4423946 L284.931304,26.967244 L283.714978,26.967244 C283.516971,26.967244 283.328395,26.9884222 283.149246,27.0307794 C282.970096,27.0731365 282.812164,27.1602027 282.675445,27.2919804 C282.538725,27.4237582 282.432651,27.6120093 282.35722,27.8567395 C282.281788,28.1014696 282.244073,28.4309091 282.244073,28.8450678 L282.244073,46.0843373 L279.570986,46.0843373 Z M304.788524,30.6946536 C304.788524,31.3347171 304.701307,31.892411 304.526872,32.3677523 C304.352437,32.8430935 304.104932,33.2525397 303.784348,33.5961032 C303.463765,33.9396666 303.079542,34.233809 302.631668,34.4785392 C302.183794,34.7232693 301.686425,34.9303455 301.139547,35.0997741 L301.139547,35.2409639 C301.809001,35.4103924 302.419515,35.6433532 302.971107,35.9398532 C303.522699,36.2363531 303.998853,36.5987366 304.399582,37.0270143 C304.800312,37.4552921 305.111462,37.9518044 305.333041,38.5165663 C305.554621,39.0813281 305.665409,39.7166757 305.665409,40.422628 C305.665409,42.3239929 304.972394,43.7429358 303.586342,44.6794992 C302.200289,45.6160627 300.130671,46.0843373 297.377425,46.0843373 L288.042834,46.0843373 L288.042834,44.545369 L289.230873,44.545369 C289.447738,44.545369 289.6481,44.5241907 289.831964,44.4818336 C290.015828,44.4394764 290.17376,44.3524103 290.305765,44.2206325 C290.43777,44.0888548 290.543844,43.9006036 290.62399,43.6558735 C290.704136,43.4111434 290.744208,43.0817039 290.744208,42.6675452 L290.744208,28.8168298 C290.744208,28.4309092 290.704136,28.1179417 290.62399,27.8779179 C290.543844,27.6378941 290.435413,27.4519961 290.298693,27.3202184 C290.161974,27.1884406 290.001685,27.0966682 289.817821,27.0448983 C289.633957,26.9931285 289.438309,26.967244 289.230873,26.967244 L288.042834,26.967244 L288.042834,25.4423946 L296.500539,25.4423946 C299.253785,25.4423946 301.323404,25.8659596 302.709456,26.7131024 C304.095508,27.5602452 304.788524,28.8874157 304.788524,30.6946536 L304.788524,30.6946536 Z M295.3125,44.3194654 L297.235991,44.3194654 C297.877158,44.3194654 298.424028,44.2488712 298.876616,44.1076807 C299.329205,43.9664903 299.696927,43.7382358 299.979795,43.4229104 C300.262663,43.107585 300.467739,42.6957857 300.59503,42.1875 C300.72232,41.6792143 300.785964,41.0579856 300.785964,40.3237952 C300.785964,39.6178429 300.729392,39.0036735 300.616245,38.4812688 C300.503097,37.9588641 300.309807,37.5282396 300.036369,37.1893825 C299.76293,36.8505254 299.404636,36.5963864 298.961476,36.4269578 C298.518317,36.2575293 297.962018,36.1728163 297.292565,36.1728163 L295.3125,36.1728163 L295.3125,44.3194654 Z M295.3125,34.4079443 L296.415679,34.4079443 C297.094562,34.4079443 297.657931,34.3373501 298.105805,34.1961596 C298.55368,34.0549692 298.911973,33.8361272 299.180698,33.5396273 C299.449422,33.2431273 299.640355,32.8595656 299.753502,32.3889307 C299.866649,31.9182958 299.923222,31.3535425 299.923222,30.6946536 C299.923222,30.0357648 299.859578,29.4851302 299.732287,29.0427334 C299.604997,28.6003366 299.399921,28.2426595 299.117053,27.9696913 C298.834185,27.696723 298.466462,27.5014125 298.013874,27.3837538 C297.561285,27.266095 297.009702,27.2072666 296.359106,27.2072666 L295.3125,27.2072666 L295.3125,34.4079443 Z M316.612338,44.3194654 L322.411099,44.3194654 C322.703396,44.3194654 322.953259,44.2653432 323.160695,44.1570971 C323.368131,44.0488511 323.547278,43.8958971 323.698141,43.6982304 C323.849004,43.5005638 323.969221,43.267603 324.058796,42.9993411 C324.148371,42.7310792 324.216729,42.4369368 324.263874,42.1169051 L324.490167,40.7614834 L326.498518,40.7614834 L326.286369,46.0843373 L309.314386,46.0843373 L309.314386,44.545369 L310.530711,44.545369 C310.738148,44.545369 310.931438,44.5265439 311.110587,44.4888931 C311.289737,44.4512423 311.447669,44.3735887 311.584388,44.25593 C311.721108,44.1382712 311.827182,43.964139 311.902613,43.7335279 C311.978045,43.5029168 312.01576,43.1993618 312.01576,42.8228539 L312.01576,28.8450678 C312.01576,28.4309091 311.978045,28.1014696 311.902613,27.8567395 C311.827182,27.6120093 311.723465,27.4237582 311.59146,27.2919804 C311.459455,27.1602027 311.30388,27.0731365 311.124731,27.0307794 C310.945581,26.9884222 310.747577,26.967244 310.530711,26.967244 L309.314386,26.967244 L309.314386,25.4423946 L325.395339,25.4423946 L325.508486,30.7652485 L323.485991,30.7652485 L323.344558,29.3957078 C323.269127,28.6897555 323.08998,28.1485335 322.807112,27.7720256 C322.524244,27.3955177 322.085806,27.2072666 321.491783,27.2072666 L316.612338,27.2072666 L316.612338,34.4361822 L323.485991,34.4361822 L323.485991,36.1728163 L316.612338,36.1728163 L316.612338,44.3194654 Z M330.034348,44.545369 L331.250673,44.545369 C331.448681,44.545369 331.637257,44.5265439 331.816406,44.4888931 C331.995556,44.4512423 332.153488,44.3735887 332.290207,44.25593 C332.426927,44.1382712 332.535358,43.964139 332.615504,43.7335279 C332.69565,43.5029168 332.735722,43.1993618 332.735722,42.8228539 L332.735722,28.732116 C332.735722,28.3461954 332.69565,28.0379341 332.615504,27.807323 C332.535358,27.5767119 332.426927,27.4002265 332.290207,27.2778614 C332.153488,27.1554964 331.995556,27.0731365 331.816406,27.0307794 C331.637257,26.9884222 331.448681,26.967244 331.250673,26.967244 L330.034348,26.967244 L330.034348,25.4423946 L339.368939,25.4423946 C342.103327,25.4423946 344.109301,25.8989036 345.386921,26.8119352 C346.66454,27.7249669 347.303341,29.0521374 347.303341,30.7934864 C347.303341,31.555915 347.190195,32.233619 346.963901,32.826619 C346.737607,33.4196189 346.438243,33.9373095 346.0658,34.3797063 C345.693358,34.8221031 345.271419,35.1962522 344.799973,35.5021649 C344.328527,35.8080776 343.847659,36.0598635 343.357355,36.2575301 L346.808324,42.1875 C347.053476,42.6016587 347.291553,42.9569827 347.522562,43.2534827 C347.753571,43.5499827 347.984576,43.7947091 348.215585,43.9876694 C348.446593,44.1806297 348.68467,44.3218181 348.929822,44.4112387 C349.174974,44.5006593 349.434266,44.545369 349.707705,44.545369 L349.820851,44.545369 L349.820851,46.0843373 L348.873249,46.0843373 C348.005788,46.0843373 347.249128,46.0513934 346.603246,45.9855045 C345.957365,45.9196156 345.391638,45.790193 344.906048,45.5972327 C344.420458,45.4042724 344.000877,45.1383677 343.647293,44.7995105 C343.293708,44.4606534 342.966058,44.0229696 342.664332,43.4864458 L339.227505,37.1187877 L337.304014,37.1187877 L337.304014,42.8228539 C337.304014,43.1993618 337.344086,43.5029168 337.424232,43.7335279 C337.504378,43.964139 337.612809,44.1382712 337.749529,44.25593 C337.886248,44.3735887 338.04418,44.4512423 338.22333,44.4888931 C338.402479,44.5265439 338.591055,44.545369 338.789062,44.545369 L340.033675,44.545369 L340.033675,46.0843373 L330.034348,46.0843373 L330.034348,44.545369 Z M337.304014,35.4386295 L338.930496,35.4386295 C339.599949,35.4386295 340.158605,35.3492102 340.606479,35.170369 C341.054353,34.9915277 341.412647,34.725623 341.681371,34.3726468 C341.950096,34.0196707 342.143386,33.5772805 342.261247,33.0454631 C342.379109,32.5136457 342.438039,31.8947701 342.438039,31.1888178 C342.438039,30.4546274 342.372037,29.8333986 342.240032,29.325113 C342.108027,28.8168273 341.900594,28.4003217 341.617726,28.0755836 C341.334858,27.7508455 340.967136,27.5155316 340.514547,27.3696348 C340.061959,27.223738 339.515089,27.1507907 338.873922,27.1507907 L337.304014,27.1507907 L337.304014,35.4386295 Z M363.766164,46.3667169 C361.974668,46.3667169 360.411847,46.1125778 359.077654,45.6042922 C357.74346,45.0960065 356.633221,44.3759459 355.746902,43.4440889 C354.860583,42.5122318 354.200568,41.3921376 353.766837,40.0837726 C353.333107,38.7754076 353.116245,37.3258739 353.116245,35.735128 C353.116245,34.1726202 353.34725,32.7419116 353.809267,31.4429593 C354.271285,30.1440071 354.954872,29.0286191 355.860048,28.096762 C356.765225,27.164905 357.891965,26.4401381 359.240302,25.9224398 C360.588638,25.4047414 362.149102,25.1458961 363.92174,25.1458961 C365.128643,25.1458961 366.18231,25.2329622 367.082772,25.4070971 C367.983235,25.581232 368.737537,25.8188991 369.345703,26.1201054 C369.953869,26.4213117 370.408808,26.7766358 370.710533,27.1860881 C371.012259,27.5955405 371.16312,28.0355775 371.16312,28.5062123 C371.16312,28.8450695 371.082975,29.1627432 370.922683,29.4592432 C370.762391,29.7557432 370.521957,30.0169416 370.201374,30.2428464 C369.88079,30.4687511 369.489496,30.6452366 369.027478,30.772308 C368.565461,30.8993794 368.02802,30.9629142 367.41514,30.9629142 C367.41514,30.3793269 367.344424,29.8428112 367.20299,29.3533509 C367.061556,28.8638906 366.842337,28.4450319 366.545326,28.096762 C366.248315,27.7484922 365.873521,27.4778812 365.420932,27.2849209 C364.968344,27.0919606 364.435617,26.9954819 363.822737,26.9954819 C362.766697,26.9954819 361.868606,27.1884393 361.128435,27.5743599 C360.388264,27.9602805 359.784822,28.5250339 359.31809,29.268637 C358.851358,30.0122402 358.511922,30.9276113 358.299771,32.0147779 C358.08762,33.1019444 357.981546,34.3420488 357.981546,35.735128 C357.981546,37.1282073 358.092335,38.3636053 358.313914,39.4413592 C358.535494,40.5191131 358.893788,41.4250716 359.388807,42.159262 C359.883825,42.8934525 360.524983,43.4511464 361.312298,43.8323607 C362.099613,44.2135749 363.063707,44.4041792 364.204607,44.4041792 C364.562906,44.4041792 364.9212,44.3900604 365.279499,44.3618223 C365.637798,44.3335842 365.986663,44.2818151 366.326105,44.2065136 L366.326105,39.9567018 C366.326105,39.1848606 366.151672,38.6483449 365.802802,38.3471386 C365.453931,38.0459322 364.940063,37.8953313 364.26118,37.8953313 L363.87931,37.8953313 L363.87931,36.3704819 L372.987608,36.3704819 L372.987608,37.8953313 L372.605738,37.8953313 C372.313441,37.8953313 372.058864,37.9306284 371.841999,38.0012236 C371.625134,38.0718189 371.445987,38.191829 371.304553,38.3612575 C371.163119,38.5306861 371.059402,38.7542343 370.9934,39.0319089 C370.927397,39.3095835 370.894397,39.6554949 370.894397,40.0696536 L370.894397,44.8136295 C369.762925,45.3313279 368.622042,45.7195958 367.471713,45.978445 C366.321384,46.2372942 365.086213,46.3667169 363.766164,46.3667169 L363.766164,46.3667169 Z" id="RANDALL-B.-ISENBERG" fill="#000000" sketch:type="MSShapeGroup"></path>
            <path d="M1.06605267,64.5484281 L3.25649919,64.5484281 C4.28543079,64.5484281 5.02971551,64.7019704 5.48937567,65.0090597 C5.94903584,65.3161489 6.17886247,65.8014839 6.17886247,66.4650791 C6.17886247,66.9239481 6.05068993,67.3025093 5.79434099,67.6007742 C5.53799205,67.899039 5.16408179,68.0922906 4.672599,68.1805346 L4.672599,68.2334808 C5.85003619,68.4346772 6.43874596,69.0523762 6.43874596,70.0865964 C6.43874596,70.7784297 6.20449958,71.3184751 5.7359998,71.7067489 C5.26750001,72.0950226 4.61249411,72.2891566 3.77096242,72.2891566 L1.06605267,72.2891566 L1.06605267,64.5484281 Z M1.96768925,67.8628577 L3.45273774,67.8628577 C4.08919028,67.8628577 4.54707565,67.7631434 4.8264076,67.5637119 C5.10573954,67.3642803 5.24540342,67.0280756 5.24540342,66.5550875 C5.24540342,66.1209269 5.08982847,65.8076652 4.7786739,65.6152932 C4.46751932,65.4229212 3.97250811,65.3267366 3.2936254,65.3267366 L1.96768925,65.3267366 L1.96768925,67.8628577 Z M1.96768925,68.6252824 L1.96768925,71.5214373 L3.58533136,71.5214373 C4.21117635,71.5214373 4.68232095,71.4005448 4.9987793,71.1587561 C5.31523764,70.9169674 5.47346444,70.5384062 5.47346444,70.023061 C5.47346444,69.5430134 5.31170185,69.1900425 4.98817181,68.9641378 C4.66464177,68.7382331 4.1722824,68.6252824 3.51107893,68.6252824 L1.96768925,68.6252824 Z M14.8345737,68.4082031 C14.8345737,69.6471495 14.5207719,70.6213491 13.893159,71.3308311 C13.2655461,72.0403132 12.3930888,72.3950489 11.275761,72.3950489 C10.1336823,72.3950489 9.25238558,72.0464902 8.63184436,71.3493623 C8.01130313,70.6522344 7.70103718,69.6683281 7.70103718,68.3976139 C7.70103718,67.137489 8.01218708,66.1606421 8.63449623,65.467044 C9.25680537,64.7734458 10.140754,64.4266519 11.2863685,64.4266519 C12.4001605,64.4266519 13.2699659,64.7796228 13.8958109,65.4855751 C14.5216559,66.1915274 14.8345737,67.165727 14.8345737,68.4082031 L14.8345737,68.4082031 Z M8.65571121,68.4082031 C8.65571121,69.4565423 8.8793502,70.2516092 9.3266349,70.7934276 C9.7739196,71.335246 10.4236218,71.6061512 11.275761,71.6061512 C12.134972,71.6061512 12.7837902,71.3361285 13.2222353,70.7960749 C13.6606804,70.2560214 13.8798996,69.4600721 13.8798996,68.4082031 C13.8798996,67.3669234 13.6615643,66.5771511 13.2248872,66.0388625 C12.78821,65.5005738 12.1420436,65.2314335 11.2863685,65.2314335 C10.4271576,65.2314335 9.7739196,65.5023387 9.3266349,66.0441571 C8.8793502,66.5859755 8.65571121,67.373983 8.65571121,68.4082031 L8.65571121,68.4082031 Z M21.2202822,72.2891566 L20.2550007,69.8271602 L17.1470063,69.8271602 L16.1923323,72.2891566 L15.2800882,72.2891566 L18.3456526,64.5166604 L19.1040881,64.5166604 L22.1537412,72.2891566 L21.2202822,72.2891566 Z M19.9739022,69.017084 L19.0722656,66.6186229 C18.9555827,66.3150634 18.8353657,65.9426792 18.711611,65.501459 C18.6338223,65.8403161 18.5224448,66.2127003 18.3774751,66.6186229 L17.465231,69.017084 L19.9739022,69.017084 Z M24.1214305,69.0700301 L24.1214305,72.2891566 L23.2197939,72.2891566 L23.2197939,64.5484281 L25.3465955,64.5484281 C26.2977385,64.5484281 27.0004776,64.7302081 27.454834,65.0937735 C27.9091904,65.457339 28.1363652,66.0044438 28.1363652,66.7351045 C28.1363652,67.7587354 27.6166034,68.4505583 26.5770643,68.8105939 L28.6826509,72.2891566 L27.6165982,72.2891566 L25.7390726,69.0700301 L24.1214305,69.0700301 Z M24.1214305,68.2970162 L25.357203,68.2970162 C25.9936555,68.2970162 26.4603804,68.1708291 26.7573916,67.9184511 C27.0544028,67.6660732 27.2029061,67.2875119 27.2029061,66.782756 C27.2029061,66.2709406 27.0517509,65.902086 26.749436,65.6761813 C26.447121,65.4502765 25.9618332,65.3373259 25.2935581,65.3373259 L24.1214305,65.3373259 L24.1214305,68.2970162 Z M36.1238046,68.3446677 C36.1238046,69.6224414 35.7764128,70.5992883 35.0816187,71.2752377 C34.3868247,71.951187 33.3870789,72.2891566 32.0823512,72.2891566 L29.9343346,72.2891566 L29.9343346,64.5484281 L32.3104122,64.5484281 C33.5161361,64.5484281 34.4531217,64.8819856 35.1213968,65.5491105 C35.789672,66.2162355 36.1238046,67.1480785 36.1238046,68.3446677 L36.1238046,68.3446677 Z M35.1691305,68.3764354 C35.1691305,67.3669236 34.9154373,66.6062714 34.4080432,66.0944559 C33.9006491,65.5826405 33.1466409,65.3267366 32.1459961,65.3267366 L30.8359712,65.3267366 L30.8359712,71.5108481 L31.9338463,71.5108481 C33.0087439,71.5108481 33.8166729,71.2470024 34.3576576,70.719303 C34.8986423,70.1916036 35.1691305,69.4106556 35.1691305,68.3764354 L35.1691305,68.3764354 Z M43.9945616,65.2420228 C43.1424223,65.2420228 42.4697374,65.5252819 41.9764867,66.0918086 C41.483236,66.6583354 41.2366144,67.4339889 41.2366144,68.4187924 C41.2366144,69.4318339 41.4743965,70.2145468 41.949968,70.7669545 C42.4255395,71.3193622 43.1035281,71.5955619 43.9839541,71.5955619 C44.5249387,71.5955619 45.1419348,71.4984949 45.8349609,71.3043581 L45.8349609,72.0932558 C45.2975121,72.2944522 44.6345507,72.3950489 43.8460567,72.3950489 C42.703978,72.3950489 41.8226812,72.0491375 41.20214,71.3573042 C40.5815988,70.6654709 40.2713328,69.6824471 40.2713328,68.4082031 C40.2713328,67.610477 40.4207202,66.9115947 40.7194993,66.3115352 C41.0182784,65.7114757 41.4496453,65.2490839 42.0136129,64.9243458 C42.5775806,64.5996078 43.241426,64.4372412 44.005169,64.4372412 C44.818414,64.4372412 45.5291086,64.5854889 46.1372744,64.8819889 L45.7554048,65.6550028 C45.1684541,65.3796814 44.5815122,65.2420228 43.9945616,65.2420228 L43.9945616,65.2420228 Z M51.8494073,72.2891566 L47.5268555,72.2891566 L47.5268555,64.5484281 L51.8494073,64.5484281 L51.8494073,65.3479151 L48.4284921,65.3479151 L48.4284921,67.8416792 L51.6425613,67.8416792 L51.6425613,68.6358716 L48.4284921,68.6358716 L48.4284921,71.484375 L51.8494073,71.484375 L51.8494073,72.2891566 Z M54.4694572,69.0700301 L54.4694572,72.2891566 L53.5678206,72.2891566 L53.5678206,64.5484281 L55.6946222,64.5484281 C56.6457651,64.5484281 57.3485043,64.7302081 57.8028607,65.0937735 C58.257217,65.457339 58.4843918,66.0044438 58.4843918,66.7351045 C58.4843918,67.7587354 57.9646301,68.4505583 56.9250909,68.8105939 L59.0306775,72.2891566 L57.9646249,72.2891566 L56.0870993,69.0700301 L54.4694572,69.0700301 Z M54.4694572,68.2970162 L55.7052297,68.2970162 C56.3416822,68.2970162 56.8084071,68.1708291 57.1054182,67.9184511 C57.4024294,67.6660732 57.5509328,67.2875119 57.5509328,66.782756 C57.5509328,66.2709406 57.3997776,65.902086 57.0974626,65.6761813 C56.7951477,65.4502765 56.3098599,65.3373259 55.6415847,65.3373259 L54.4694572,65.3373259 L54.4694572,68.2970162 Z M62.6690463,72.2891566 L61.7674098,72.2891566 L61.7674098,65.3479151 L59.311776,65.3479151 L59.311776,64.5484281 L65.1246801,64.5484281 L65.1246801,65.3479151 L62.6690463,65.3479151 L62.6690463,72.2891566 Z M66.2915039,72.2891566 L66.2915039,64.5484281 L67.1931405,64.5484281 L67.1931405,72.2891566 L66.2915039,72.2891566 Z M70.2215787,72.2891566 L69.3199421,72.2891566 L69.3199421,64.5484281 L73.6424939,64.5484281 L73.6424939,65.3479151 L70.2215787,65.3479151 L70.2215787,68.1805346 L73.4356479,68.1805346 L73.4356479,68.9800216 L70.2215787,68.9800216 L70.2215787,72.2891566 Z M74.9260001,72.2891566 L74.9260001,64.5484281 L75.8276367,64.5484281 L75.8276367,72.2891566 L74.9260001,72.2891566 Z M82.2769902,72.2891566 L77.9544383,72.2891566 L77.9544383,64.5484281 L82.2769902,64.5484281 L82.2769902,65.3479151 L78.8560749,65.3479151 L78.8560749,67.8416792 L82.0701441,67.8416792 L82.0701441,68.6358716 L78.8560749,68.6358716 L78.8560749,71.484375 L82.2769902,71.484375 L82.2769902,72.2891566 Z M90.1848734,68.3446677 C90.1848734,69.6224414 89.8374816,70.5992883 89.1426876,71.2752377 C88.4478935,71.951187 87.4481477,72.2891566 86.14342,72.2891566 L83.9954034,72.2891566 L83.9954034,64.5484281 L86.371481,64.5484281 C87.577205,64.5484281 88.5141905,64.8819856 89.1824657,65.5491105 C89.8507408,66.2162355 90.1848734,67.1480785 90.1848734,68.3446677 L90.1848734,68.3446677 Z M89.2301994,68.3764354 C89.2301994,67.3669236 88.9765061,66.6062714 88.469112,66.0944559 C87.9617179,65.5826405 87.2077097,65.3267366 86.2070649,65.3267366 L84.89704,65.3267366 L84.89704,71.5108481 L85.9949151,71.5108481 C87.0698128,71.5108481 87.8777418,71.2470024 88.4187264,70.719303 C88.9597111,70.1916036 89.2301994,69.4106556 89.2301994,68.3764354 L89.2301994,68.3764354 Z M92.269245,71.029038 L92.3488012,71.1508142 C92.2568692,71.5037904 92.1242769,71.914119 91.9510203,72.3818124 C91.7777638,72.8495058 91.5974383,73.2845424 91.4100384,73.6869352 L90.7470703,73.6869352 C90.8425382,73.31984 90.9477281,72.8662725 91.0626431,72.3262189 C91.1775582,71.7861654 91.2579975,71.3537761 91.3039635,71.029038 L92.269245,71.029038 Z M100.283203,65.2420228 C99.4310639,65.2420228 98.758379,65.5252819 98.2651283,66.0918086 C97.7718776,66.6583354 97.5252559,67.4339889 97.5252559,68.4187924 C97.5252559,69.4318339 97.7630381,70.2145468 98.2386096,70.7669545 C98.7141811,71.3193622 99.3921696,71.5955619 100.272596,71.5955619 C100.81358,71.5955619 101.430576,71.4984949 102.123603,71.3043581 L102.123603,72.0932558 C101.586154,72.2944522 100.923192,72.3950489 100.134698,72.3950489 C98.9926196,72.3950489 98.1113228,72.0491375 97.4907816,71.3573042 C96.8702404,70.6654709 96.5599744,69.6824471 96.5599744,68.4082031 C96.5599744,67.610477 96.7093617,66.9115947 97.0081408,66.3115352 C97.3069199,65.7114757 97.7382868,65.2490839 98.3022545,64.9243458 C98.8662222,64.5996078 99.5300676,64.4372412 100.293811,64.4372412 C101.107056,64.4372412 101.81775,64.5854889 102.425916,64.8819889 L102.044046,65.6550028 C101.457096,65.3796814 100.870154,65.2420228 100.283203,65.2420228 L100.283203,65.2420228 Z M104.717134,69.0700301 L104.717134,72.2891566 L103.815497,72.2891566 L103.815497,64.5484281 L105.942299,64.5484281 C106.893442,64.5484281 107.596181,64.7302081 108.050537,65.0937735 C108.504894,65.457339 108.732068,66.0044438 108.732068,66.7351045 C108.732068,67.7587354 108.212307,68.4505583 107.172767,68.8105939 L109.278354,72.2891566 L108.212301,72.2891566 L106.334776,69.0700301 L104.717134,69.0700301 Z M104.717134,68.2970162 L105.952906,68.2970162 C106.589359,68.2970162 107.056084,68.1708291 107.353095,67.9184511 C107.650106,67.6660732 107.798609,67.2875119 107.798609,66.782756 C107.798609,66.2709406 107.647454,65.902086 107.345139,65.6761813 C107.042824,65.4502765 106.557536,65.3373259 105.889261,65.3373259 L104.717134,65.3373259 L104.717134,68.2970162 Z M110.530038,72.2891566 L110.530038,64.5484281 L111.431674,64.5484281 L111.431674,72.2891566 L110.530038,72.2891566 Z M116.989999,72.2891566 L114.359341,65.4273343 L114.316911,65.4273343 C114.366413,65.9709176 114.391164,66.6168543 114.391164,67.3651638 L114.391164,72.2891566 L113.558476,72.2891566 L113.558476,64.5484281 L114.916235,64.5484281 L117.371868,70.9337349 L117.414298,70.9337349 L119.891147,64.5484281 L121.238298,64.5484281 L121.238298,72.2891566 L120.336662,72.2891566 L120.336662,67.3016284 C120.336662,66.729807 120.361412,66.1085783 120.410914,65.4379236 L120.368484,65.4379236 L117.716612,72.2891566 L116.989999,72.2891566 Z M123.3651,72.2891566 L123.3651,64.5484281 L124.266736,64.5484281 L124.266736,72.2891566 L123.3651,72.2891566 Z M132.450414,72.2891566 L131.421488,72.2891566 L127.183796,65.7926628 L127.141366,65.7926628 C127.197939,66.5550913 127.226226,67.2539737 127.226226,67.8893308 L127.226226,72.2891566 L126.393538,72.2891566 L126.393538,64.5484281 L127.411857,64.5484281 L131.638941,71.0184488 L131.681371,71.0184488 C131.6743,70.9231452 131.658388,70.616943 131.633638,70.0998329 C131.608887,69.5827228 131.600047,69.2129859 131.607119,68.9906109 L131.607119,64.5484281 L132.450414,64.5484281 L132.450414,72.2891566 Z M139.456661,72.2891566 L138.491379,69.8271602 L135.383385,69.8271602 L134.428711,72.2891566 L133.516467,72.2891566 L136.582031,64.5166604 L137.340467,64.5166604 L140.39012,72.2891566 L139.456661,72.2891566 Z M138.210281,69.017084 L137.308644,66.6186229 C137.191961,66.3150634 137.071744,65.9426792 136.94799,65.501459 C136.870201,65.8403161 136.758823,66.2127003 136.613854,66.6186229 L135.70161,69.017084 L138.210281,69.017084 Z M141.456173,72.2891566 L141.456173,64.5484281 L142.357809,64.5484281 L142.357809,71.4737858 L145.778724,71.4737858 L145.778724,72.2891566 L141.456173,72.2891566 Z M156.105115,68.3446677 C156.105115,69.6224414 155.757723,70.5992883 155.062929,71.2752377 C154.368135,71.951187 153.368389,72.2891566 152.063662,72.2891566 L149.915645,72.2891566 L149.915645,64.5484281 L152.291723,64.5484281 C153.497447,64.5484281 154.434432,64.8819856 155.102707,65.5491105 C155.770983,66.2162355 156.105115,67.1480785 156.105115,68.3446677 L156.105115,68.3446677 Z M155.150441,68.3764354 C155.150441,67.3669236 154.896748,66.6062714 154.389354,66.0944559 C153.88196,65.5826405 153.127952,65.3267366 152.127307,65.3267366 L150.817282,65.3267366 L150.817282,71.5108481 L151.915157,71.5108481 C152.990055,71.5108481 153.797984,71.2470024 154.338968,70.719303 C154.879953,70.1916036 155.150441,69.4106556 155.150441,68.3764354 L155.150441,68.3764354 Z M162.156688,72.2891566 L157.834136,72.2891566 L157.834136,64.5484281 L162.156688,64.5484281 L162.156688,65.3479151 L158.735772,65.3479151 L158.735772,67.8416792 L161.949842,67.8416792 L161.949842,68.6358716 L158.735772,68.6358716 L158.735772,71.484375 L162.156688,71.484375 L162.156688,72.2891566 Z M164.776738,72.2891566 L163.875101,72.2891566 L163.875101,64.5484281 L168.197653,64.5484281 L168.197653,65.3479151 L164.776738,65.3479151 L164.776738,68.1805346 L167.990807,68.1805346 L167.990807,68.9800216 L164.776738,68.9800216 L164.776738,72.2891566 Z M173.803711,72.2891566 L169.481159,72.2891566 L169.481159,64.5484281 L173.803711,64.5484281 L173.803711,65.3479151 L170.382796,65.3479151 L170.382796,67.8416792 L173.596865,67.8416792 L173.596865,68.6358716 L170.382796,68.6358716 L170.382796,71.484375 L173.803711,71.484375 L173.803711,72.2891566 Z M181.579001,72.2891566 L180.550074,72.2891566 L176.312382,65.7926628 L176.269952,65.7926628 C176.326526,66.5550913 176.354812,67.2539737 176.354812,67.8893308 L176.354812,72.2891566 L175.522124,72.2891566 L175.522124,64.5484281 L176.540443,64.5484281 L180.767528,71.0184488 L180.809958,71.0184488 C180.802886,70.9231452 180.786975,70.616943 180.762224,70.0998329 C180.737473,69.5827228 180.728633,69.2129859 180.735705,68.9906109 L180.735705,64.5484281 L181.579001,64.5484281 L181.579001,72.2891566 Z M188.086695,70.229551 C188.086695,70.910795 187.83919,71.4420162 187.344171,71.8232304 C186.849152,72.2044447 186.177351,72.3950489 185.328748,72.3950489 C184.409428,72.3950489 183.702269,72.2768037 183.20725,72.0403097 L183.20725,71.1719927 C183.525476,71.3061236 183.871984,71.4120149 184.246784,71.4896696 C184.621584,71.5673244 184.992842,71.6061512 185.36057,71.6061512 C185.961665,71.6061512 186.414246,71.4923181 186.718329,71.2646484 C187.022412,71.0369788 187.174451,70.7201875 187.174451,70.3142649 C187.174451,70.046003 187.12053,69.8262786 187.012687,69.6550852 C186.904844,69.4838917 186.724518,69.3259373 186.471705,69.1812171 C186.218892,69.0364968 185.834374,68.8723654 185.31814,68.6888178 C184.596828,68.4311452 184.081486,68.1258254 183.772099,67.7728492 C183.462712,67.419873 183.308021,66.9592461 183.308021,66.3909544 C183.308021,65.7944247 183.532544,65.3196789 183.981597,64.9667027 C184.430649,64.6137266 185.024663,64.4372412 185.763655,64.4372412 C186.53447,64.4372412 187.243397,64.5784295 187.890457,64.8608104 L187.609358,65.6444136 C186.96937,65.3761517 186.34707,65.2420228 185.74244,65.2420228 C185.265101,65.2420228 184.892074,65.3443843 184.62335,65.5491105 C184.354626,65.7538367 184.220265,66.0379782 184.220265,66.4015437 C184.220265,66.6698056 184.269766,66.8895299 184.36877,67.0607234 C184.467774,67.2319168 184.63484,67.3889888 184.869974,67.5319442 C185.105108,67.6748995 185.464875,67.832854 185.949286,68.0058123 C186.762531,68.2952528 187.32207,68.6058671 187.627921,68.9376647 C187.933772,69.2694623 188.086695,69.7000868 188.086695,70.229551 L188.086695,70.229551 Z M193.995067,72.2891566 L189.672515,72.2891566 L189.672515,64.5484281 L193.995067,64.5484281 L193.995067,65.3479151 L190.574151,65.3479151 L190.574151,67.8416792 L193.788221,67.8416792 L193.788221,68.6358716 L190.574151,68.6358716 L190.574151,71.484375 L193.995067,71.484375 L193.995067,72.2891566 Z M202.910661,64.0507342 L203.658489,64.0507342 L203.658489,74.9152861 L202.910661,74.9152861 L202.910661,64.0507342 Z M215.369157,72.2891566 L214.467521,72.2891566 L214.467521,65.3479151 L212.011887,65.3479151 L212.011887,64.5484281 L217.824791,64.5484281 L217.824791,65.3479151 L215.369157,65.3479151 L215.369157,72.2891566 Z M223.314167,72.2891566 L218.991615,72.2891566 L218.991615,64.5484281 L223.314167,64.5484281 L223.314167,65.3479151 L219.893252,65.3479151 L219.893252,67.8416792 L223.107321,67.8416792 L223.107321,68.6358716 L219.893252,68.6358716 L219.893252,71.484375 L223.314167,71.484375 L223.314167,72.2891566 Z M230.193124,72.2891566 L229.169501,72.2891566 L227.085129,68.8847186 L224.963631,72.2891566 L224.008957,72.2891566 L226.586577,68.24407 L224.183981,64.5484281 L225.181085,64.5484281 L227.106344,67.6140107 L229.047515,64.5484281 L230.007493,64.5484281 L227.604896,68.2123023 L230.193124,72.2891566 Z M236.175748,72.2891566 L235.210466,69.8271602 L232.102472,69.8271602 L231.147798,72.2891566 L230.235554,72.2891566 L233.301118,64.5166604 L234.059553,64.5166604 L237.109207,72.2891566 L236.175748,72.2891566 Z M234.929368,69.017084 L234.027731,66.6186229 C233.911048,66.3150634 233.790831,65.9426792 233.667076,65.501459 C233.589288,65.8403161 233.47791,66.2127003 233.33294,66.6186229 L232.420696,69.017084 L234.929368,69.017084 Z M242.550849,70.229551 C242.550849,70.910795 242.303343,71.4420162 241.808324,71.8232304 C241.313306,72.2044447 240.641505,72.3950489 239.792901,72.3950489 C238.873581,72.3950489 238.166422,72.2768037 237.671404,72.0403097 L237.671404,71.1719927 C237.98963,71.3061236 238.336138,71.4120149 238.710938,71.4896696 C239.085737,71.5673244 239.456996,71.6061512 239.824724,71.6061512 C240.425818,71.6061512 240.8784,71.4923181 241.182482,71.2646484 C241.486565,71.0369788 241.638605,70.7201875 241.638605,70.3142649 C241.638605,70.046003 241.584684,69.8262786 241.47684,69.6550852 C241.368997,69.4838917 241.188671,69.3259373 240.935858,69.1812171 C240.683045,69.0364968 240.298528,68.8723654 239.782294,68.6888178 C239.060981,68.4311452 238.545639,68.1258254 238.236252,67.7728492 C237.926866,67.419873 237.772175,66.9592461 237.772175,66.3909544 C237.772175,65.7944247 237.996698,65.3196789 238.44575,64.9667027 C238.894803,64.6137266 239.488816,64.4372412 240.227808,64.4372412 C240.998623,64.4372412 241.70755,64.5784295 242.35461,64.8608104 L242.073512,65.6444136 C241.433523,65.3761517 240.811223,65.2420228 240.206593,65.2420228 C239.729254,65.2420228 239.356228,65.3443843 239.087503,65.5491105 C238.818779,65.7538367 238.684419,66.0379782 238.684419,66.4015437 C238.684419,66.6698056 238.73392,66.8895299 238.832924,67.0607234 C238.931927,67.2319168 239.098994,67.3889888 239.334127,67.5319442 C239.569261,67.6748995 239.929028,67.832854 240.41344,68.0058123 C241.226684,68.2952528 241.786224,68.6058671 242.092075,68.9376647 C242.397925,69.2694623 242.550849,69.7000868 242.550849,70.229551 L242.550849,70.229551 Z M246.95826,64.5484281 L249.148707,64.5484281 C250.177638,64.5484281 250.921923,64.7019704 251.381583,65.0090597 C251.841244,65.3161489 252.07107,65.8014839 252.07107,66.4650791 C252.07107,66.9239481 251.942898,67.3025093 251.686549,67.6007742 C251.4302,67.899039 251.056289,68.0922906 250.564807,68.1805346 L250.564807,68.2334808 C251.742244,68.4346772 252.330954,69.0523762 252.330954,70.0865964 C252.330954,70.7784297 252.096707,71.3184751 251.628208,71.7067489 C251.159708,72.0950226 250.504702,72.2891566 249.66317,72.2891566 L246.95826,72.2891566 L246.95826,64.5484281 Z M247.859897,67.8628577 L249.344945,67.8628577 C249.981398,67.8628577 250.439283,67.7631434 250.718615,67.5637119 C250.997947,67.3642803 251.137611,67.0280756 251.137611,66.5550875 C251.137611,66.1209269 250.982036,65.8076652 250.670882,65.6152932 C250.359727,65.4229212 249.864716,65.3267366 249.185833,65.3267366 L247.859897,65.3267366 L247.859897,67.8628577 Z M247.859897,68.6252824 L247.859897,71.5214373 L249.477539,71.5214373 C250.103384,71.5214373 250.574529,71.4005448 250.890987,71.1587561 C251.207445,70.9169674 251.365672,70.5384062 251.365672,70.023061 C251.365672,69.5430134 251.20391,69.1900425 250.88038,68.9641378 C250.556849,68.7382331 250.06449,68.6252824 249.403287,68.6252824 L247.859897,68.6252824 Z M260.726781,68.4082031 C260.726781,69.6471495 260.41298,70.6213491 259.785367,71.3308311 C259.157754,72.0403132 258.285297,72.3950489 257.167969,72.3950489 C256.02589,72.3950489 255.144593,72.0464902 254.524052,71.3493623 C253.903511,70.6522344 253.593245,69.6683281 253.593245,68.3976139 C253.593245,67.137489 253.904395,66.1606421 254.526704,65.467044 C255.149013,64.7734458 256.032962,64.4266519 257.178576,64.4266519 C258.292368,64.4266519 259.162174,64.7796228 259.788019,65.4855751 C260.413864,66.1915274 260.726781,67.165727 260.726781,68.4082031 L260.726781,68.4082031 Z M254.547919,68.4082031 C254.547919,69.4565423 254.771558,70.2516092 255.218843,70.7934276 C255.666127,71.335246 256.31583,71.6061512 257.167969,71.6061512 C258.02718,71.6061512 258.675998,71.3361285 259.114443,70.7960749 C259.552888,70.2560214 259.772107,69.4600721 259.772107,68.4082031 C259.772107,67.3669234 259.553772,66.5771511 259.117095,66.0388625 C258.680418,65.5005738 258.034251,65.2314335 257.178576,65.2314335 C256.319365,65.2314335 255.666127,65.5023387 255.218843,66.0441571 C254.771558,66.5859755 254.547919,67.373983 254.547919,68.4082031 L254.547919,68.4082031 Z M267.11249,72.2891566 L266.147208,69.8271602 L263.039214,69.8271602 L262.08454,72.2891566 L261.172296,72.2891566 L264.23786,64.5166604 L264.996296,64.5166604 L268.045949,72.2891566 L267.11249,72.2891566 Z M265.86611,69.017084 L264.964473,66.6186229 C264.84779,66.3150634 264.727573,65.9426792 264.603819,65.501459 C264.52603,65.8403161 264.414653,66.2127003 264.269683,66.6186229 L263.357439,69.017084 L265.86611,69.017084 Z M270.013638,69.0700301 L270.013638,72.2891566 L269.112002,72.2891566 L269.112002,64.5484281 L271.238803,64.5484281 C272.189946,64.5484281 272.892685,64.7302081 273.347042,65.0937735 C273.801398,65.457339 274.028573,66.0044438 274.028573,66.7351045 C274.028573,67.7587354 273.508811,68.4505583 272.469272,68.8105939 L274.574859,72.2891566 L273.508806,72.2891566 L271.63128,69.0700301 L270.013638,69.0700301 Z M270.013638,68.2970162 L271.249411,68.2970162 C271.885863,68.2970162 272.352588,68.1708291 272.649599,67.9184511 C272.94661,67.6660732 273.095114,67.2875119 273.095114,66.782756 C273.095114,66.2709406 272.943959,65.902086 272.641644,65.6761813 C272.339329,65.4502765 271.854041,65.3373259 271.185766,65.3373259 L270.013638,65.3373259 L270.013638,68.2970162 Z M282.016012,68.3446677 C282.016012,69.6224414 281.66862,70.5992883 280.973826,71.2752377 C280.279032,71.951187 279.279287,72.2891566 277.974559,72.2891566 L275.826542,72.2891566 L275.826542,64.5484281 L278.20262,64.5484281 C279.408344,64.5484281 280.345329,64.8819856 281.013605,65.5491105 C281.68188,66.2162355 282.016012,67.1480785 282.016012,68.3446677 L282.016012,68.3446677 Z M281.061338,68.3764354 C281.061338,67.3669236 280.807645,66.6062714 280.300251,66.0944559 C279.792857,65.5826405 279.038849,65.3267366 278.038204,65.3267366 L276.728179,65.3267366 L276.728179,71.5108481 L277.826054,71.5108481 C278.900952,71.5108481 279.708881,71.2470024 280.249865,70.719303 C280.79085,70.1916036 281.061338,69.4106556 281.061338,68.3764354 L281.061338,68.3764354 Z M293.297077,68.4082031 C293.297077,69.6471495 292.983275,70.6213491 292.355662,71.3308311 C291.728049,72.0403132 290.855592,72.3950489 289.738264,72.3950489 C288.596186,72.3950489 287.714889,72.0464902 287.094348,71.3493623 C286.473807,70.6522344 286.163541,69.6683281 286.163541,68.3976139 C286.163541,67.137489 286.47469,66.1606421 287.097,65.467044 C287.719309,64.7734458 288.603257,64.4266519 289.748872,64.4266519 C290.862664,64.4266519 291.732469,64.7796228 292.358314,65.4855751 C292.984159,66.1915274 293.297077,67.165727 293.297077,68.4082031 L293.297077,68.4082031 Z M287.118215,68.4082031 C287.118215,69.4565423 287.341854,70.2516092 287.789138,70.7934276 C288.236423,71.335246 288.886125,71.6061512 289.738264,71.6061512 C290.597475,71.6061512 291.246294,71.3361285 291.684739,70.7960749 C292.123184,70.2560214 292.342403,69.4600721 292.342403,68.4082031 C292.342403,67.3669234 292.124068,66.5771511 291.687391,66.0388625 C291.250713,65.5005738 290.604547,65.2314335 289.748872,65.2314335 C288.889661,65.2314335 288.236423,65.5023387 287.789138,66.0441571 C287.341854,66.5859755 287.118215,67.373983 287.118215,68.4082031 L287.118215,68.4082031 Z M295.927734,72.2891566 L295.026098,72.2891566 L295.026098,64.5484281 L299.34865,64.5484281 L299.34865,65.3479151 L295.927734,65.3479151 L295.927734,68.1805346 L299.141804,68.1805346 L299.141804,68.9800216 L295.927734,68.9800216 L295.927734,72.2891566 Z M303.453748,72.2891566 L303.453748,64.5484281 L304.355385,64.5484281 L304.355385,71.4737858 L307.7763,71.4737858 L307.7763,72.2891566 L303.453748,72.2891566 Z M313.41418,72.2891566 L309.091629,72.2891566 L309.091629,64.5484281 L313.41418,64.5484281 L313.41418,65.3479151 L309.993265,65.3479151 L309.993265,67.8416792 L313.207334,67.8416792 L313.207334,68.6358716 L309.993265,68.6358716 L309.993265,71.484375 L313.41418,71.484375 L313.41418,72.2891566 Z M318.542901,68.2334808 L321.178862,68.2334808 L321.178862,71.9979527 C320.768704,72.1285539 320.35148,72.2273858 319.927179,72.2944512 C319.502877,72.3615167 319.011402,72.3950489 318.452738,72.3950489 C317.278836,72.3950489 316.364834,72.0464902 315.710702,71.3493623 C315.05657,70.6522344 314.729509,69.6753875 314.729509,68.4187924 C314.729509,67.6140067 314.891272,66.9089474 315.214802,66.3035933 C315.538332,65.6982392 316.004173,65.2358473 316.612338,64.9164039 C317.220504,64.5969605 317.932967,64.4372412 318.749747,64.4372412 C319.577136,64.4372412 320.347939,64.5890186 321.06218,64.8925781 L320.712133,65.6867705 C320.012035,65.3902705 319.338466,65.2420228 318.691406,65.2420228 C317.747335,65.2420228 317.010122,65.5226346 316.479745,66.0838667 C315.949368,66.6450988 315.684183,67.4233996 315.684183,68.4187924 C315.684183,69.4636018 315.939644,70.2560214 316.450574,70.7960749 C316.961504,71.3361285 317.711976,71.6061512 318.702014,71.6061512 C319.239463,71.6061512 319.764528,71.5443813 320.277226,71.4208396 L320.277226,69.0382624 L318.542901,69.0382624 L318.542901,68.2334808 Z M327.914618,72.2891566 L326.949337,69.8271602 L323.841342,69.8271602 L322.886668,72.2891566 L321.974424,72.2891566 L325.039989,64.5166604 L325.798424,64.5166604 L328.848077,72.2891566 L327.914618,72.2891566 Z M326.668238,69.017084 L325.766602,66.6186229 C325.649919,66.3150634 325.529702,65.9426792 325.405947,65.501459 C325.328158,65.8403161 325.216781,66.2127003 325.071811,66.6186229 L324.159567,69.017084 L326.668238,69.017084 Z M329.91413,72.2891566 L329.91413,64.5484281 L330.815766,64.5484281 L330.815766,71.4737858 L334.236682,71.4737858 L334.236682,72.2891566 L329.91413,72.2891566 Z M342.749192,70.229551 C342.749192,70.910795 342.501686,71.4420162 342.006668,71.8232304 C341.511649,72.2044447 340.839848,72.3950489 339.991245,72.3950489 C339.071924,72.3950489 338.364765,72.2768037 337.869747,72.0403097 L337.869747,71.1719927 C338.187973,71.3061236 338.534481,71.4120149 338.909281,71.4896696 C339.284081,71.5673244 339.655339,71.6061512 340.023067,71.6061512 C340.624161,71.6061512 341.076743,71.4923181 341.380826,71.2646484 C341.684909,71.0369788 341.836948,70.7201875 341.836948,70.3142649 C341.836948,70.046003 341.783027,69.8262786 341.675184,69.6550852 C341.56734,69.4838917 341.387015,69.3259373 341.134202,69.1812171 C340.881388,69.0364968 340.496871,68.8723654 339.980637,68.6888178 C339.259324,68.4311452 338.743982,68.1258254 338.434596,67.7728492 C338.125209,67.419873 337.970518,66.9592461 337.970518,66.3909544 C337.970518,65.7944247 338.195041,65.3196789 338.644093,64.9667027 C339.093146,64.6137266 339.68716,64.4372412 340.426152,64.4372412 C341.196966,64.4372412 341.905893,64.5784295 342.552953,64.8608104 L342.271855,65.6444136 C341.631866,65.3761517 341.009567,65.2420228 340.404937,65.2420228 C339.927597,65.2420228 339.554571,65.3443843 339.285847,65.5491105 C339.017122,65.7538367 338.882762,66.0379782 338.882762,66.4015437 C338.882762,66.6698056 338.932263,66.8895299 339.031267,67.0607234 C339.130271,67.2319168 339.297337,67.3889888 339.532471,67.5319442 C339.767605,67.6748995 340.127372,67.832854 340.611783,68.0058123 C341.425028,68.2952528 341.984567,68.6058671 342.290418,68.9376647 C342.596269,69.2694623 342.749192,69.7000868 342.749192,70.229551 L342.749192,70.229551 Z M349.251583,66.8039345 C349.251583,67.5875416 348.983746,68.1902393 348.448065,68.6120458 C347.912385,69.0338524 347.146001,69.2447524 346.148892,69.2447524 L345.236648,69.2447524 L345.236648,72.2891566 L344.335011,72.2891566 L344.335011,64.5484281 L346.345131,64.5484281 C348.282775,64.5484281 349.251583,65.300256 349.251583,66.8039345 L349.251583,66.8039345 Z M345.236648,68.4717385 L346.048121,68.4717385 C346.847222,68.4717385 347.425325,68.3429041 347.782445,68.0852316 C348.139566,67.827559 348.318124,67.414583 348.318124,66.8462914 C348.318124,66.334476 348.150173,65.9532674 347.814268,65.7026544 C347.478362,65.4520413 346.955065,65.3267366 346.24436,65.3267366 L345.236648,65.3267366 L345.236648,68.4717385 Z M355.19708,72.2891566 L350.874529,72.2891566 L350.874529,64.5484281 L355.19708,64.5484281 L355.19708,65.3479151 L351.776165,65.3479151 L351.776165,67.8416792 L354.990234,67.8416792 L354.990234,68.6358716 L351.776165,68.6358716 L351.776165,71.484375 L355.19708,71.484375 L355.19708,72.2891566 Z M360.235638,65.2420228 C359.383499,65.2420228 358.710814,65.5252819 358.217563,66.0918086 C357.724312,66.6583354 357.477691,67.4339889 357.477691,68.4187924 C357.477691,69.4318339 357.715473,70.2145468 358.191044,70.7669545 C358.666616,71.3193622 359.344604,71.5955619 360.22503,71.5955619 C360.766015,71.5955619 361.383011,71.4984949 362.076037,71.3043581 L362.076037,72.0932558 C361.538588,72.2944522 360.875627,72.3950489 360.087133,72.3950489 C358.945054,72.3950489 358.063757,72.0491375 357.443216,71.3573042 C356.822675,70.6654709 356.512409,69.6824471 356.512409,68.4082031 C356.512409,67.610477 356.661796,66.9115947 356.960575,66.3115352 C357.259355,65.7114757 357.690722,65.2490839 358.254689,64.9243458 C358.818657,64.5996078 359.482502,64.4372412 360.246245,64.4372412 C361.05949,64.4372412 361.770185,64.5854889 362.378351,64.8819889 L361.996481,65.6550028 C361.40953,65.3796814 360.822588,65.2420228 360.235638,65.2420228 L360.235638,65.2420228 Z M363.767932,72.2891566 L363.767932,64.5484281 L364.669568,64.5484281 L364.669568,72.2891566 L363.767932,72.2891566 Z M371.670511,72.2891566 L370.70523,69.8271602 L367.597235,69.8271602 L366.642561,72.2891566 L365.730317,72.2891566 L368.795882,64.5166604 L369.554317,64.5166604 L372.60397,72.2891566 L371.670511,72.2891566 Z M370.424131,69.017084 L369.522495,66.6186229 C369.405812,66.3150634 369.285595,65.9426792 369.16184,65.501459 C369.084051,65.8403161 368.972674,66.2127003 368.827704,66.6186229 L367.91546,69.017084 L370.424131,69.017084 Z M373.670023,72.2891566 L373.670023,64.5484281 L374.571659,64.5484281 L374.571659,71.4737858 L377.992575,71.4737858 L377.992575,72.2891566 L373.670023,72.2891566 Z M379.307903,72.2891566 L379.307903,64.5484281 L380.20954,64.5484281 L380.20954,72.2891566 L379.307903,72.2891566 Z M387.035459,72.2891566 L381.705196,72.2891566 L381.705196,71.5849727 L385.820902,65.3585043 L381.832486,65.3585043 L381.832486,64.5484281 L386.918777,64.5484281 L386.918777,65.252612 L382.803071,71.4737858 L387.035459,71.4737858 L387.035459,72.2891566 Z M393.41056,72.2891566 L392.445279,69.8271602 L389.337284,69.8271602 L388.38261,72.2891566 L387.470366,72.2891566 L390.535931,64.5166604 L391.294366,64.5166604 L394.344019,72.2891566 L393.41056,72.2891566 Z M392.16418,69.017084 L391.262544,66.6186229 C391.145861,66.3150634 391.025644,65.9426792 390.901889,65.501459 C390.824101,65.8403161 390.712723,66.2127003 390.567753,66.6186229 L389.655509,69.017084 L392.16418,69.017084 Z M397.038322,72.2891566 L396.136685,72.2891566 L396.136685,65.3479151 L393.681051,65.3479151 L393.681051,64.5484281 L399.493955,64.5484281 L399.493955,65.3479151 L397.038322,65.3479151 L397.038322,72.2891566 Z M400.660779,72.2891566 L400.660779,64.5484281 L401.562416,64.5484281 L401.562416,72.2891566 L400.660779,72.2891566 Z M410.419669,68.4082031 C410.419669,69.6471495 410.105868,70.6213491 409.478255,71.3308311 C408.850642,72.0403132 407.978184,72.3950489 406.860857,72.3950489 C405.718778,72.3950489 404.837481,72.0464902 404.21694,71.3493623 C403.596399,70.6522344 403.286133,69.6683281 403.286133,68.3976139 C403.286133,67.137489 403.597283,66.1606421 404.219592,65.467044 C404.841901,64.7734458 405.72585,64.4266519 406.871464,64.4266519 C407.985256,64.4266519 408.855062,64.7796228 409.480907,65.4855751 C410.106752,66.1915274 410.419669,67.165727 410.419669,68.4082031 L410.419669,68.4082031 Z M404.240807,68.4082031 C404.240807,69.4565423 404.464446,70.2516092 404.911731,70.7934276 C405.359015,71.335246 406.008717,71.6061512 406.860857,71.6061512 C407.720068,71.6061512 408.368886,71.3361285 408.807331,70.7960749 C409.245776,70.2560214 409.464995,69.4600721 409.464995,68.4082031 C409.464995,67.3669234 409.24666,66.5771511 408.809983,66.0388625 C408.373306,65.5005738 407.727139,65.2314335 406.871464,65.2314335 C406.012253,65.2314335 405.359015,65.5023387 404.911731,66.0441571 C404.464446,66.5859755 404.240807,67.373983 404.240807,68.4082031 L404.240807,68.4082031 Z M418.205566,72.2891566 L417.17664,72.2891566 L412.938948,65.7926628 L412.896518,65.7926628 C412.953092,66.5550913 412.981378,67.2539737 412.981378,67.8893308 L412.981378,72.2891566 L412.14869,72.2891566 L412.14869,64.5484281 L413.167009,64.5484281 L417.394093,71.0184488 L417.436523,71.0184488 C417.429452,70.9231452 417.413541,70.616943 417.38879,70.0998329 C417.364039,69.5827228 417.355199,69.2129859 417.362271,68.9906109 L417.362271,64.5484281 L418.205566,64.5484281 L418.205566,72.2891566 Z" id="BOARD-CERTIFIED,-CRI" fill="#000000" sketch:type="MSShapeGroup"></path>
        </g>
    </g>
</svg>